<?xml version="1.0" encoding="utf-8"?>
<!-- Generator: Adobe Illustrator 21.1.0, SVG Export Plug-In . SVG Version: 6.00 Build 0)  -->
<svg version="1.1" xmlns="http://www.w3.org/2000/svg" xmlns:xlink="http://www.w3.org/1999/xlink" x="0px" y="0px"
	 viewBox="0 0 573.5 134.5" style="enable-background:new 0 0 573.5 134.5;" xml:space="preserve">
<style type="text/css">
	.st0{fill:#AFBB14;stroke:#010101;stroke-width:0.5;stroke-miterlimit:10;}
	.st1{fill:#EA6212;stroke:#010101;stroke-width:0.5;stroke-miterlimit:10;}
	.st2{fill:#E0097C;stroke:#010101;stroke-width:0.5;stroke-miterlimit:10;}
	.st3{fill:#4F81C2;stroke:#010101;stroke-width:0.5;stroke-miterlimit:10;}
	.st4{fill:#010101;}
	.st5{font-family:'MyriadPro-Regular';}
	.st6{font-size:12px;}
</style>
<g id="Layer_1">
	<title>adslive_new</title>
</g>
<g id="Isolation_Mode">
	<g>
		<g>
			<path class="st0" d="M34.6,12.1c0,0,23.2,87.8,24,94.2c-0.3-10,1.9-91,7.6-102.3C57,6.3,34.6,12.1,34.6,12.1z"/>
			<path class="st1" d="M81.6,9.1c-6.2,21.7-16.1,58.3-14.2,94.5c3.8-16.3,18.4-64.2,34.9-79.6C94.1,18.7,81.6,9.1,81.6,9.1z"/>
			<path class="st2" d="M24.9,32c7.5,10,23.7,48.1,26.6,72.1C45.4,93.5,26.9,64.3,6.3,48.6C14.9,41.6,24.9,32,24.9,32z"/>
			<path class="st3" d="M106,42.2c-1.8,1.6-22.1,32.3-28.8,56c9.9-13,14.7-21,39.9-36.4C110,54.1,106.7,44.8,106,42.2z"/>
		</g>
		<g id="XMLID_250_">
			<path id="XMLID_257_" class="st2" d="M31.1,124H11.1c-1.2,0-1.9-1.2-1.9-2.4v-4.8c0-1.5,1-2.4,1.9-2.4h19.9
				c1.2,0,1.9,1.2,1.9,2.4v4.8C33,122.8,32,124,31.1,124z"/>
			<path id="XMLID_255_" class="st0" d="M59.7,124H39.7c-1.2,0-1.9-1.2-1.9-2.4v-4.8c0-1.5,1-2.4,1.9-2.4h19.9
				c1.2,0,1.9,1.2,1.9,2.4v4.8C61.6,122.8,60.9,124,59.7,124z"/>
			<path id="XMLID_254_" class="st1" d="M88.3,124H68.3c-1.2,0-1.9-1.2-1.9-2.4v-4.8c0-1.5,1-2.4,1.9-2.4h19.9
				c1.2,0,1.9,1.2,1.9,2.4v4.8C90.2,122.8,89.3,124,88.3,124z"/>
			<path id="XMLID_252_" class="st3" d="M116.9,124H97c-1.2,0-1.9-1.2-1.9-2.4v-4.8c0-1.5,1-2.4,1.9-2.4h19.9c1.2,0,1.9,1.2,1.9,2.4
				v4.8C118.8,122.8,117.9,124,116.9,124z"/>
		</g>
	</g>
	<g id="XMLID_207_">
		<path id="XMLID_248_" class="st4" d="M148.3,110.7h1.4l5.6,14.6h-1.4l-1.7-4.8h-6.5L144,125h-1.7L148.3,110.7z M146,119.4h5.6
			l-2.8-7.3L146,119.4z"/>
		<path id="XMLID_247_" class="st4" d="M167.6,115.7h-2v9.3h-1.4v-9.3h-1.7v-1.1h1.7v-0.8c0-0.6,0-0.8,0-1.1c0-0.3,0.3-0.8,0.3-0.8
			c0.3-0.3,0.6-0.6,0.8-0.6c0.3-0.3,0.8-0.3,1.4-0.3c0.3,0,0.3,0,0.6,0c0.3,0,0.3,0,0.6,0v1.1c-0.3,0-0.3,0-0.6,0s-0.3,0-0.6,0
			s-0.6,0-0.8,0.3c-0.3,0-0.3,0.3-0.3,0.6c0,0.3,0,0.3-0.3,0.6c0,0.3,0,0.6,0,0.8v0.8h2.2V115.7z"/>
		<path id="XMLID_245_" class="st4" d="M176,114.6h1.1v2.5l0,0c0.3-0.8,0.8-1.4,1.4-2c0.6-0.6,1.4-0.6,2.5-0.6v1.4
			c-0.6,0-1.1,0-1.7,0.3c-0.6,0.3-0.8,0.6-1.1,0.8c-0.3,0.3-0.6,0.8-0.8,1.1c-0.3,0.6-0.3,0.8-0.3,1.4v5.6H176V114.6z"/>
		<path id="XMLID_243_" class="st4" d="M189.5,110.7h1.4v2h-1.4V110.7z M189.5,114.6h1.4V125h-1.4V114.6z"/>
		<path id="XMLID_242_" class="st4" d="M207.7,118c-0.3-0.8-0.6-1.4-0.8-2c-0.6-0.6-1.1-0.6-2-0.6c-0.6,0-1.1,0-1.7,0.3
			c-0.6,0.3-0.8,0.6-1.1,1.1c-0.6,0.3-0.8,0.8-0.8,1.4c-0.3,0.6-0.3,1.1-0.3,1.7c0,0.6,0,1.1,0.3,1.7c0.3,0.6,0.3,1.1,0.6,1.4
			c0.3,0.3,0.6,0.8,1.1,1.1c0.6,0.3,1.1,0.3,1.7,0.3c0.3,0,0.8,0,1.1-0.3c0.3-0.3,0.6-0.3,0.8-0.6c0.3-0.3,0.6-0.6,0.6-0.8
			c0.3-0.3,0.3-0.8,0.3-1.1h1.4c-0.3,1.4-0.6,2.2-1.4,3.1c-0.8,0.8-1.7,1.1-2.8,1.1c-0.8,0-1.4-0.3-2.2-0.6
			c-0.6-0.3-1.1-0.6-1.7-1.1c-0.6-0.6-0.8-1.1-0.8-1.7c-0.3-0.6-0.3-1.4-0.3-2.2c0-0.8,0-1.4,0.3-2.2c0.3-0.6,0.6-1.1,0.8-1.7
			c0.3-0.6,0.8-0.8,1.7-1.1c0.6-0.3,1.4-0.6,2.2-0.6c1.1,0,2,0.3,2.8,0.8c0.8,0.6,1.1,1.4,1.4,2.8L207.7,118L207.7,118z"/>
		<path id="XMLID_240_" class="st4" d="M217.8,117.7c0-0.6,0.3-1.1,0.3-1.7c0.3-0.6,0.6-0.8,0.8-1.1c0.3-0.3,0.8-0.6,1.4-0.6
			c0.6,0,1.1-0.3,1.7-0.3c0.6,0,0.8,0,1.4,0c0.6,0,0.8,0.3,1.1,0.6c0.3,0.3,0.6,0.6,0.8,1.1c0.3,0.6,0.3,1.1,0.3,1.7v5.6
			c0,0.6,0.3,0.8,0.8,0.8c0.3,0,0.3,0,0.3,0v1.1c-0.3,0-0.3,0-0.3,0s-0.3,0-0.6,0s-0.6,0-0.8,0c-0.3,0-0.3-0.3-0.6-0.3
			c0-0.3-0.3-0.3-0.3-0.6c0-0.3,0-0.6,0-0.8l0,0c-0.3,0.3-0.6,0.6-0.6,0.8c-0.3,0.3-0.6,0.6-0.8,0.6c-0.3,0.3-0.6,0.3-1.1,0.3
			c-0.3,0-0.8,0.3-1.4,0.3c-0.6,0-0.8,0-1.4-0.3c-0.6,0-0.8-0.3-1.1-0.6c-0.3-0.3-0.6-0.6-0.8-0.8c-0.3-0.3-0.3-0.8-0.3-1.4
			c0-0.8,0.3-1.4,0.6-1.7c0.3-0.3,0.8-0.8,1.4-0.8c0.6-0.3,1.1-0.3,1.7-0.6c0.6,0,1.4-0.3,2-0.3c0.3,0,0.6,0,0.8,0
			c0.3,0,0.3,0,0.6-0.3l0.3-0.3c0-0.3,0-0.3,0-0.6c0-0.6,0-0.8-0.3-1.1c-0.3-0.3-0.3-0.6-0.6-0.6c-0.3-0.3-0.6-0.3-0.8-0.3
			s-0.6,0-1.1,0c-0.8,0-1.4,0.3-2,0.6c-0.6,0.3-0.8,1.1-0.8,2h-0.6L217.8,117.7L217.8,117.7z M224.6,119.4L224.6,119.4
			c0,0.3-0.3,0.3-0.6,0.3s-0.6,0-0.6,0.3c-0.6,0-1.1,0.3-1.7,0.3c-0.6,0-1.1,0.3-1.7,0.3c-0.6,0.3-0.8,0.3-1.1,0.6
			c-0.3,0.3-0.6,0.6-0.6,1.1c0,0.3,0,0.6,0.3,0.8c0,0.3,0.3,0.6,0.6,0.6c0.3,0.3,0.6,0.3,0.8,0.3c0.3,0,0.6,0.3,0.8,0.3
			c0.6,0,0.8,0,1.4-0.3c0.6-0.3,0.8-0.3,1.1-0.6s0.6-0.6,0.8-1.1c0.3-0.3,0.3-0.8,0.3-1.4L224.6,119.4L224.6,119.4z"/>
		<path id="XMLID_238_" class="st4" d="M235.5,114.6h1.4v1.7l0,0c0.3-0.6,0.6-1.1,1.4-1.4c0.6-0.3,1.4-0.6,2-0.6c0.8,0,1.4,0,2,0.3
			c0.6,0.3,0.8,0.6,1.1,0.8c0.3,0.3,0.6,0.8,0.6,1.4c0,0.6,0.3,1.1,0.3,1.7v6.7h-1.4v-6.5c0-0.6,0-0.8,0-1.1c0-0.3-0.3-0.8-0.6-1.1
			c-0.3-0.3-0.6-0.6-0.8-0.6c-0.3-0.3-0.8-0.3-1.4-0.3c-0.6,0-0.8,0-1.4,0.3c-0.6,0.3-0.8,0-0.8,0.3c-0.3,0.3-0.6,0.6-0.6,1.1
			c-0.3,0.6-0.3,0.8-0.3,1.4v6.2h-1.4L235.5,114.6z"/>
		<path id="XMLID_236_" class="st4" d="M266.4,110.7h5.1c2.2,0,3.9,0.6,5.1,2c1.1,1.1,1.7,3.1,1.7,5.3c0,2.5-0.6,4.2-1.7,5.3
			s-2.8,1.7-5.1,2h-5.1V110.7z M267.8,123.9h2.8c1.1,0,2,0,2.8-0.3c0.8-0.3,1.4-0.6,2-1.1s0.8-1.1,1.1-2c0.3-0.8,0.3-1.7,0.3-2.8
			s0-2-0.3-2.8s-0.6-1.4-1.1-2c-0.6-0.6-1.1-0.8-2-1.1c-0.8-0.3-1.7-0.3-2.8-0.3h-2.8V123.9z"/>
		<path id="XMLID_235_" class="st4" d="M287.2,110.7h1.4v2h-1.4V110.7z M287.2,114.6h1.4V125h-1.4V114.6z"/>
		<path id="XMLID_233_" class="st4" d="M298.1,114.6h1.1v2.5l0,0c0.3-0.8,0.8-1.4,1.4-2c0.6-0.6,1.4-0.6,2.5-0.6v1.4
			c-0.6,0-1.1,0-1.7,0.3c-0.6,0.3-0.8,0.6-1.1,0.8c-0.3,0.3-0.6,0.8-0.8,1.1c-0.3,0.6-0.3,0.8-0.3,1.4v5.6h-1.4L298.1,114.6
			L298.1,114.6z"/>
		<path id="XMLID_230_" class="st4" d="M311.8,120.2c0,0.6,0,0.8,0.3,1.4c0,0.6,0.3,0.8,0.6,1.4c0.3,0.3,0.6,0.8,1.1,0.8
			c0.6,0.3,0.8,0.3,1.7,0.3c0.8,0,1.7-0.3,2.2-0.8c0.6-0.6,0.8-1.1,1.1-2h1.4c-0.3,1.1-0.8,2.2-1.4,2.8c-0.8,0.6-1.7,0.8-3.1,0.8
			c-0.8,0-1.4-0.3-2.2-0.6c-0.6-0.3-1.1-0.6-1.4-1.1c-0.3-0.6-0.6-1.1-0.8-1.7c-0.3-0.6-0.3-1.4-0.3-2.2c0-0.6,0-1.4,0.3-2
			c0.3-0.6,0.6-1.1,0.8-1.7c0.3-0.6,0.8-0.8,1.4-1.1c0.6-0.3,1.4-0.6,2.2-0.6s1.7,0.3,2.2,0.6s1.1,0.8,1.4,1.4
			c0.3,0.6,0.6,1.1,0.8,2c0.3,0.8,0.3,1.4,0.3,2.2L311.8,120.2z M318.6,119.1c0-0.6,0-0.8-0.3-1.4c-0.3-0.6-0.3-0.8-0.6-1.1
			c-0.3-0.3-0.6-0.6-1.1-0.8c-0.3-0.3-0.8-0.3-1.4-0.3c-0.6,0-1.1,0-1.4,0.3c-0.3,0.3-0.8,0.6-1.1,0.8c-0.3,0.3-0.6,0.8-0.6,1.1
			c-0.3,0.6-0.3,0.8-0.3,1.4H318.6z"/>
		<path id="XMLID_229_" class="st4" d="M336,118c-0.3-0.8-0.6-1.4-0.8-2c-0.3-0.6-1.1-0.6-2-0.6c-0.6,0-1.1,0-1.7,0.3
			c-0.6,0.3-0.8,0.6-1.1,1.1c-0.3,0.3-0.6,0.8-0.6,1.4c-0.3,0.6-0.3,1.1-0.3,1.7c0,0.6,0,1.1,0.3,1.7c0.3,0.6,0.3,1.1,0.6,1.4
			c0.3,0.3,0.6,0.8,1.1,1.1c0.6,0.3,1.1,0.3,1.7,0.3c0.3,0,0.8,0,1.1-0.3c0.3-0.3,0.6-0.3,0.8-0.6c0.3-0.3,0.6-0.6,0.6-0.8
			c0.3-0.3,0.3-0.8,0.3-1.1h1.4c-0.3,1.4-0.6,2.2-1.4,3.1s-1.7,1.1-2.8,1.1c-0.8,0-1.4-0.3-2.2-0.6c-0.6-0.3-1.1-0.6-1.7-1.1
			c-0.6-0.6-0.8-1.1-0.8-1.7c-0.3-0.6-0.3-1.4-0.3-2.2c0-0.8,0-1.4,0.3-2.2c0.3-0.6,0.6-1.1,0.8-1.7c0.3-0.6,0.8-0.8,1.7-1.1
			c0.6-0.3,1.4-0.6,2.2-0.6c1.1,0,2,0.3,2.8,0.8c0.8,0.6,1.1,1.4,1.4,2.8L336,118L336,118z"/>
		<path id="XMLID_227_" class="st4" d="M348.3,114.6h2.2v1.1h-2.2v7c0,0.3,0,0.8,0.3,1.1c0,0.3,0.3,0.3,0.8,0.3c0.3,0,0.8,0,1.1,0
			v1.1c-0.3,0-0.3,0-0.6,0s-0.3,0-0.6,0c-0.8,0-1.4-0.3-1.7-0.6c-0.3-0.3-0.6-0.8-0.6-2v-7h-1.7v-1.1h1.7v-3.1h1.4v3.1L348.3,114.6z
			"/>
		<path id="XMLID_225_" class="st4" d="M363.8,114.3c0.8,0,1.4,0.3,2.2,0.6c0.6,0.3,1.1,0.6,1.7,1.1c0.3,0.6,0.8,1.1,0.8,1.7
			c0.3,0.6,0.3,1.4,0.3,2.2s0,1.4-0.3,2.2c-0.3,0.6-0.6,1.1-0.8,1.7c-0.3,0.6-0.8,0.8-1.7,1.1c-0.6,0.3-1.4,0.6-2.2,0.6
			c-0.8,0-1.4-0.3-2.2-0.6c-0.6-0.3-1.1-0.6-1.7-1.1c-0.6-0.6-0.8-1.1-0.8-1.7c-0.3-0.6-0.3-1.4-0.3-2.2s0-1.4,0.3-2.2
			c0.3-0.6,0.6-1.1,0.8-1.7c0.3-0.6,0.8-0.8,1.7-1.1C362.4,114.3,362.9,114.3,363.8,114.3z M363.8,115.4c-0.6,0-1.1,0-1.7,0.3
			c-0.6,0.3-0.8,0.6-1.1,1.1c-0.3,0.3-0.6,0.8-0.6,1.4c0,0.6-0.3,1.1-0.3,1.7c0,0.6,0,1.1,0.3,1.7c0.3,0.6,0.3,1.1,0.6,1.4
			s0.6,0.8,1.1,1.1c0.6,0.3,1.1,0.3,1.7,0.3c0.6,0,1.1,0,1.7-0.3c0.6-0.3,0.8-0.6,1.1-1.1c0.3-0.3,0.6-0.8,0.6-1.4
			c0.3-0.6,0.3-1.1,0.3-1.7c0-0.6,0-1.1-0.3-1.7c-0.3-0.6-0.3-1.1-0.6-1.4c-0.3-0.3-0.6-0.8-1.1-1.1
			C364.9,115.4,364.3,115.4,363.8,115.4z"/>
		<path id="XMLID_223_" class="st4" d="M377.8,114.6h1.1v2.5l0,0c0.3-0.8,0.8-1.4,1.4-2c0.6-0.6,1.4-0.6,2.5-0.6v1.4
			c-0.6,0-1.1,0-1.7,0.3c-0.6,0.3-0.8,0.6-1.1,0.8c-0.3,0.3-0.6,0.8-0.8,1.1c-0.3,0.6-0.3,0.8-0.3,1.4v5.6h-1.4v-10.7H377.8z"/>
		<path id="XMLID_222_" class="st4" d="M390.1,114.6h1.4l3.4,9l3.1-9h1.4l-4.5,12.1c-0.3,0.6-0.3,0.8-0.6,1.1
			c-0.3,0.3-0.3,0.6-0.6,0.6c-0.3,0.3-0.6,0.3-0.6,0.3c-0.3,0-0.6,0-1.1,0c-0.3,0-0.6,0-0.6,0c-0.3,0-0.3,0-0.3,0v-1.1
			c0.3,0,0.3,0,0.6,0s0.3,0,0.6,0c0.3,0,0.6,0,0.6,0c0.3,0,0.3-0.3,0.6-0.3c0-0.3,0.3-0.3,0.3-0.6c0-0.3,0.3-0.6,0.3-0.6l0.6-1.1
			L390.1,114.6z"/>
		<path id="XMLID_220_" class="st4" d="M421.3,120.2c0,0.8,0,1.4,0.3,2c0.3,0.6,0.6,0.8,1.1,1.1c0.6,0.3,0.8,0.6,1.4,0.6
			s1.1,0.3,2,0.3c0.3,0,0.8,0,1.1-0.3c0.6,0,0.8-0.3,1.1-0.6s0.8-0.6,0.8-0.8c0.3-0.3,0.3-0.8,0.3-1.4c0-0.3,0-0.8-0.3-1.1
			c-0.3-0.3-0.3-0.6-0.8-0.8c-0.3-0.3-0.6-0.3-0.8-0.6c-0.3,0-0.6-0.3-1.1-0.3l-3.1-0.8c-0.3,0-0.8-0.3-1.1-0.3
			c-0.3-0.3-0.8-0.3-1.1-0.6c-0.3-0.3-0.6-0.6-0.8-1.1c-0.3-0.3-0.3-0.8-0.3-1.4c0-0.3,0-0.8,0.3-1.1c0-0.6,0.3-0.8,0.8-1.4
			c0.3-0.3,0.8-0.8,1.4-1.1s1.4-0.6,2.5-0.6c0.8,0,1.4,0,2,0.3c0.6,0.3,1.1,0.6,1.7,0.8c0.6,0.3,0.8,0.8,1.1,1.4
			c0.3,0.6,0.6,1.1,0.6,2h-1.4c0-0.6-0.3-1.1-0.3-1.4c-0.3-0.3-0.6-0.8-0.8-1.1c-0.3-0.3-0.8-0.6-1.1-0.6c-0.6-0.3-0.8-0.3-1.4-0.3
			s-0.8,0-1.4,0.3s-0.8,0.3-1.1,0.6s-0.6,0.6-0.8,0.8c-0.3,0.3-0.3,0.8-0.3,1.4c0,0.3,0,0.6,0.3,0.8c0,0.3,0.3,0.6,0.6,0.6
			c0.3,0.3,0.6,0.3,0.6,0.6c0.3,0,0.6,0.3,0.8,0.3l3.6,0.8c0.6,0,1.1,0.3,1.4,0.6c0.6,0.3,0.8,0.6,1.1,0.8c0.3,0.3,0.6,0.6,0.8,1.1
			c0.3,0.3,0.3,0.8,0.3,1.4c0,0.3,0,0.3,0,0.6s0,0.6-0.3,0.8c0,0.3-0.3,0.6-0.6,0.8s-0.6,0.6-0.8,0.8c-0.3,0.3-0.8,0.6-1.4,0.6
			c-0.6,0.3-1.4,0.3-2.2,0.3c-0.8,0-1.7,0-2.2-0.3c-0.8-0.3-1.4-0.6-2-0.8c-0.6-0.3-0.8-0.8-1.1-1.7c-0.3-0.8-0.3-1.4-0.3-2.2
			L421.3,120.2L421.3,120.2z"/>
		<path id="XMLID_218_" class="st4" d="M440.9,120.2c0,0.6,0,0.8,0.3,1.4c0,0.6,0.3,0.8,0.6,1.4c0.3,0.3,0.6,0.8,1.1,0.8
			c0.6,0,0.8,0.3,1.7,0.3s1.7-0.3,2.2-0.8c0.6-0.6,0.8-1.1,1.1-2h1.4c-0.3,1.1-0.8,2.2-1.4,2.8c-0.8,0.6-1.7,0.8-3.1,0.8
			c-0.8,0-1.4-0.3-2.2-0.6c-0.6-0.3-1.1-0.6-1.4-1.1c-0.3-0.6-0.6-1.1-0.8-1.7c-0.3-0.6-0.3-1.4-0.3-2.2c0-0.6,0-1.4,0.3-2
			c0.3-0.6,0.6-1.1,0.8-1.7c0.3-0.6,0.8-0.8,1.4-1.1s1.4-0.6,2.2-0.6c0.8,0,1.7,0.3,2.2,0.6c0.6,0.3,1.1,0.8,1.4,1.4
			c0.3,0.6,0.6,1.1,0.8,2c0.3,0.8,0.3,1.4,0.3,2.2L440.9,120.2z M447.9,119.1c0-0.6,0-0.8-0.3-1.4c-0.3-0.6-0.3-0.8-0.6-1.1
			c-0.3-0.3-0.6-0.6-1.1-0.8c-0.3-0.3-0.8-0.3-1.4-0.3s-1.1,0-1.4,0.3c-0.3,0.3-0.8,0.6-1.1,0.8c-0.3,0.3-0.6,0.8-0.6,1.1
			c-0.3,0.6-0.3,0.8-0.3,1.4H447.9z"/>
		<path id="XMLID_217_" class="st4" d="M458,114.6h1.1v2.5l0,0c0.3-0.8,0.8-1.4,1.4-2c0.6-0.6,1.4-0.6,2.5-0.6v1.4
			c-0.6,0-1.1,0-1.7,0.3c-0.6,0.3-0.8,0.6-1.1,0.8c-0.3,0.3-0.6,0.8-0.8,1.1c-0.3,0.6-0.3,0.8-0.3,1.4v5.6h-1.4v-10.7H458z"/>
		<path id="XMLID_215_" class="st4" d="M470.1,114.6h1.4l3.4,9.3l0,0l3.4-9.3h1.4l-3.9,10.4h-1.4L470.1,114.6z"/>
		<path id="XMLID_213_" class="st4" d="M487.8,110.7h1.4v2h-1.4V110.7z M487.8,114.6h1.4V125h-1.4V114.6z"/>
		<path id="XMLID_212_" class="st4" d="M506,118c-0.3-0.8-0.6-1.4-0.8-2c-0.6-0.6-1.1-0.6-2-0.6c-0.6,0-1.1,0-1.7,0.3
			c-0.6,0.3-0.8,0.6-1.1,1.1c-0.3,0.3-0.6,0.8-0.6,1.4c-0.3,0.6-0.3,1.1-0.3,1.7c0,0.6,0,1.1,0.3,1.7c0.3,0.6,0.3,1.1,0.6,1.4
			c0.3,0.3,0.6,0.8,1.1,1.1c0.6,0.3,1.1,0.3,1.7,0.3c0.3,0,0.8,0,1.1-0.3c0.3-0.3,0.6-0.3,0.8-0.6c0.3-0.3,0.6-0.6,0.6-0.8
			c0.3-0.3,0.3-0.8,0.3-1.1h1.4c-0.3,1.4-0.6,2.2-1.4,3.1c-0.8,0.8-1.7,1.1-2.8,1.1c-0.8,0-1.4-0.3-2.2-0.6
			c-0.6-0.3-1.1-0.6-1.7-1.1c-0.3-0.6-0.8-1.1-0.8-1.7c-0.3-0.6-0.3-1.4-0.3-2.2c0-0.8,0-1.4,0.3-2.2c0.3-0.6,0.6-1.1,0.8-1.7
			c0.3-0.6,0.8-0.8,1.7-1.1c0.8-0.3,1.4-0.6,2.2-0.6c1.1,0,2,0.3,2.8,0.8c0.8,0.6,1.1,1.4,1.4,2.8L506,118L506,118z"/>
		<path id="XMLID_210_" class="st4" d="M517,120.2c0,0.6,0,0.8,0.3,1.4c0,0.6,0.3,0.8,0.6,1.4c0.3,0.3,0.6,0.8,1.1,0.8
			c0.6,0,0.8,0.3,1.7,0.3c0.8,0,1.7-0.3,2.2-0.8s0.8-1.1,1.1-2h1.4c-0.3,1.1-0.8,2.2-1.4,2.8c-0.8,0.6-1.7,0.8-3.1,0.8
			c-0.8,0-1.4-0.3-2.2-0.6c-0.6-0.3-1.1-0.6-1.4-1.1c-0.3-0.6-0.6-1.1-0.8-1.7c-0.3-0.6-0.3-1.4-0.3-2.2c0-0.6,0-1.4,0.3-2
			c0.3-0.6,0.6-1.1,0.8-1.7c0.3-0.6,0.8-0.8,1.4-1.1s1.4-0.6,2.2-0.6s1.7,0.3,2.2,0.6s1.1,0.8,1.4,1.4c0.3,0.6,0.6,1.1,0.8,2
			c0.3,0.8,0.3,1.4,0.3,2.2L517,120.2z M523.7,119.1c0-0.6,0-0.8-0.3-1.4c-0.3-0.6-0.3-0.8-0.6-1.1c-0.3-0.3-0.6-0.6-1.1-0.8
			c-0.3-0.3-0.8-0.3-1.4-0.3s-1.1,0-1.4,0.3c-0.3,0.3-0.8,0.6-1.1,0.8c-0.3,0.3-0.6,0.8-0.6,1.1c-0.3,0.6-0.3,0.8-0.3,1.4H523.7z"/>
		<path id="XMLID_209_" class="st4" d="M540.3,117.7c0-0.3,0-0.8-0.3-1.1c-0.3-0.3-0.3-0.6-0.6-0.8c-0.3-0.3-0.6-0.3-0.8-0.3
			s-0.6,0-1.1,0c-0.3,0-0.6,0-0.8,0c-0.3,0-0.6,0.3-0.8,0.3c-0.3,0.3-0.6,0.3-0.6,0.6c-0.3,0.3-0.3,0.6-0.3,0.8c0,0.3,0,0.6,0.3,0.8
			c0.3,0.3,0.3,0.3,0.6,0.6c0.3,0,0.6,0.3,0.8,0.3c0.3,0,0.6,0.3,0.8,0.3l1.7,0.3c0.3,0,0.8,0.3,1.1,0.3c0.3,0.3,0.6,0.3,0.8,0.6
			s0.6,0.6,0.6,0.8c0.3,0.3,0.3,0.8,0.3,1.1c0,0.6,0,1.1-0.3,1.4c-0.3,0.3-0.6,0.8-1.1,0.8c-0.3,0.3-0.8,0.6-1.4,0.6
			c-0.6,0-1.1,0.3-1.4,0.3c-1.1,0-2.2-0.3-3.1-0.8c-0.8-0.6-1.1-1.4-1.4-2.8h1.4c0,0.8,0.3,1.4,0.8,2c0.6,0.6,1.4,0.6,2.2,0.6
			c0.3,0,0.6,0,0.8,0s0.6-0.3,0.8-0.3c0.3-0.3,0.6-0.3,0.6-0.6c0.3-0.3,0.3-0.6,0.3-0.8c0-0.3,0-0.6-0.3-0.8c0-0.3-0.3-0.3-0.6-0.6
			s-0.6-0.3-0.8-0.3s-0.6-0.3-0.8-0.3l-1.7-0.3c-0.3,0-0.8-0.3-1.1-0.3c-0.3-0.3-0.6-0.3-0.8-0.6c-0.3-0.3-0.6-0.6-0.6-0.8
			c-0.3-0.3-0.3-0.6-0.3-1.1s0-0.8,0.3-1.4c0.3-0.3,0.6-0.6,0.8-0.8c0.3-0.3,0.8-0.3,1.4-0.6c0.6,0,0.8-0.3,1.4-0.3s1.1,0,1.4,0.3
			c0.6,0,0.8,0.3,1.1,0.6c0.3,0.3,0.6,0.6,0.8,1.1c0.3,0.3,0.3,0.8,0.3,1.4L540.3,117.7z"/>
	</g>
	<path class="st4" d="M169.7,43c3.2,0,6.3,0.6,9.1,1.8c2.8,1.2,5.5,3.1,7.9,5.5v-5.9h13.5v53.9h-13.5v-5.7c-2.6,2.5-5.3,4.3-7.9,5.4
		c-2.7,1.1-5.5,1.7-8.6,1.7c-7,0-13-2.7-18-8.1c-5.1-5.4-7.6-12.1-7.6-20.1c0-8.3,2.5-15.1,7.4-20.4C156.7,45.7,162.6,43,169.7,43
		 M172.5,87.3c4.2,0,7.8-1.5,10.6-4.4c2.8-3,4.2-6.8,4.2-11.6c0-4.7-1.4-8.5-4.2-11.4c-2.8-2.9-6.3-4.4-10.6-4.4
		c-4.2,0-7.6,1.5-10.4,4.4c-2.8,3-4.1,6.7-4.1,11.4c0,4.7,1.4,8.5,4.2,11.5C164.9,85.7,168.4,87.3,172.5,87.3 M169.7,40.3
		c-7.8,0-14.4,3-19.9,8.8c-5.4,5.8-8.1,13.3-8.1,22.3c0,8.7,2.8,16.1,8.3,21.9c5.6,5.9,12.3,8.9,20,8.9c3.4,0,6.7-0.6,9.7-1.9
		c1.4-0.6,2.8-1.4,4.2-2.3v0.1v2.7h2.7h13.5h2.7v-2.7V44.4v-2.7h-2.7h-13.5H184v2.7v0.3c-1.3-0.9-2.7-1.7-4.1-2.3
		C176.7,41,173.2,40.3,169.7,40.3L169.7,40.3z M172.5,84.6c-3.4,0-6.1-1.2-8.4-3.7c-2.4-2.5-3.5-5.7-3.5-9.7c0-4,1.1-7.1,3.4-9.5
		c2.3-2.4,5-3.6,8.5-3.6c3.6,0,6.4,1.2,8.7,3.5c2.3,2.4,3.4,5.5,3.4,9.5c0,4.1-1.1,7.3-3.5,9.8C178.8,83.4,176,84.6,172.5,84.6
		L172.5,84.6z"/>
	<path class="st4" d="M270.1,23.6v74.6h-13.5v-5.7c-2.6,2.5-5.3,4.3-7.9,5.4c-2.7,1.1-5.5,1.7-8.6,1.7c-7,0-13-2.7-18-8.1
		c-5.1-5.4-7.6-12.1-7.6-20.1c0-8.3,2.5-15.1,7.4-20.4c4.9-5.3,10.9-8,17.9-8c3.2,0,6.3,0.6,9.1,1.8c2.8,1.2,5.5,3.1,7.9,5.5V23.6
		H270.1 M242.4,87.3c4.2,0,7.8-1.5,10.6-4.4c2.8-3,4.2-6.8,4.2-11.6c0-4.7-1.4-8.5-4.2-11.4c-2.8-2.9-6.3-4.4-10.6-4.4
		c-4.2,0-7.6,1.5-10.4,4.4c-2.8,3-4.1,6.7-4.1,11.4c0,4.7,1.4,8.5,4.2,11.5C234.8,85.7,238.3,87.3,242.4,87.3 M272.7,20.9h-2.7
		h-13.5h-2.7v2.7v21.1c-1.3-0.9-2.7-1.7-4.1-2.3c-3.2-1.4-6.6-2-10.1-2c-7.8,0-14.4,3-19.9,8.8c-5.4,5.8-8.1,13.3-8.1,22.3
		c0,8.7,2.8,16.1,8.3,21.9c5.6,5.9,12.3,8.9,20,8.9c3.4,0,6.7-0.6,9.7-1.9c1.4-0.6,2.8-1.4,4.2-2.3v0.1v2.7h2.7h13.5h2.7v-2.7V23.6
		V20.9L272.7,20.9z M242.4,84.6c-3.4,0-6.1-1.2-8.4-3.7c-2.4-2.5-3.5-5.7-3.5-9.7c0-4,1.1-7.1,3.4-9.5c2.3-2.4,5-3.6,8.5-3.6
		c3.6,0,6.4,1.2,8.7,3.5c2.3,2.4,3.4,5.5,3.4,9.5c0,4.1-1.1,7.3-3.5,9.8C248.7,83.4,245.9,84.6,242.4,84.6L242.4,84.6z"/>
	<path class="st4" d="M303.9,43c3.5,0,6.8,0.8,9.9,2.3c3.1,1.5,5.7,3.7,7.8,6.6l-8.4,8.4c-3.4-3.4-6.5-5-9.3-5c-1.5,0-2.7,0.3-3.6,1
		c-0.9,0.6-1.3,1.4-1.3,2.4c0,0.7,0.3,1.4,0.8,2c0.5,0.6,1.9,1.4,4,2.5l4.9,2.5c5.2,2.6,8.8,5.2,10.7,7.9c1.9,2.7,2.9,5.8,2.9,9.4
		c0,4.8-1.8,8.8-5.3,12c-3.5,3.2-8.2,4.8-14.1,4.8c-7.9,0-14.1-3.1-18.8-9.2l8.3-9.1c1.6,1.8,3.4,3.3,5.6,4.5c2.1,1.1,4,1.7,5.7,1.7
		c1.8,0,3.2-0.4,4.3-1.3c1.1-0.9,1.6-1.8,1.6-3c0-2.1-2-4.1-5.9-6.1l-4.6-2.3c-8.7-4.4-13.1-9.9-13.1-16.5c0-4.3,1.6-7.9,4.9-10.9
		C294.5,44.5,298.7,43,303.9,43 M303.9,40.3c-5.8,0-10.6,1.8-14.4,5.2c-3.8,3.5-5.8,7.9-5.8,12.9c0,7.7,4.9,14,14.5,18.9l4.6,2.3
		c4.3,2.2,4.4,3.6,4.4,3.7c0,0.1,0,0.4-0.6,0.9c-0.6,0.5-1.5,0.7-2.7,0.7c-1.2,0-2.7-0.5-4.4-1.4c-1.8-1-3.4-2.3-4.8-3.9l-2-2.3
		l-2,2.2l-8.3,9.1l-1.5,1.6l1.4,1.8c5.2,6.8,12.2,10.3,20.9,10.3c6.6,0,11.9-1.8,15.9-5.5c4.1-3.7,6.1-8.4,6.1-13.9
		c0-4.2-1.2-7.8-3.4-11c-2.2-3.1-6.1-5.9-11.7-8.7l-4.9-2.5c-2.6-1.3-3.2-1.8-3.2-1.9c-0.1-0.1-0.1-0.2-0.1-0.2c0,0,0-0.1,0-0.1
		c0,0,0-0.1,0.2-0.2c0.4-0.3,1.1-0.4,2-0.4c2,0,4.6,1.5,7.4,4.3l1.9,1.9l1.9-1.9l8.4-8.4l1.6-1.6l-1.4-1.8c-2.4-3.2-5.3-5.7-8.8-7.4
		C311.5,41.2,307.8,40.3,303.9,40.3L303.9,40.3z"/>
	<path class="st4" d="M335.5,20.2h14.7v81.2h-14.7V20.2z"/>
	<path class="st4" d="M387.7,42.8h15l14.8,34.6l14.8-34.6h14.9l-24.9,58.6h-9.5L387.7,42.8z"/>
	<path class="st4" d="M512.6,76.3h-47.2c0.7,4.2,2.5,7.5,5.5,9.9c3,2.5,6.7,3.7,11.3,3.7c5.5,0,10.2-1.9,14.2-5.8l12.4,5.8
		c-3.1,4.4-6.8,7.6-11.1,9.7c-4.3,2.1-9.4,3.2-15.4,3.2c-9.2,0-16.7-2.9-22.5-8.7c-5.8-5.8-8.7-13.1-8.7-21.8
		c0-8.9,2.9-16.4,8.6-22.3c5.8-5.9,13-8.9,21.7-8.9c9.2,0,16.7,3,22.5,8.9c5.8,5.9,8.7,13.7,8.7,23.4L512.6,76.3z M497.9,64.8
		c-1-3.3-2.9-5.9-5.7-8c-2.9-2-6.2-3.1-10-3.1c-4.1,0-7.7,1.2-10.8,3.4c-1.9,1.4-3.7,4-5.4,7.6H497.9z"/>
	<g>
		<path class="st4" d="M527.1,20.2h14.9v67.9h-14.9V20.2z"/>
		<path class="st4" d="M527.1,92.7h14.9v10.2h-14.9V92.7z"/>
	</g>
	<g>
		<path class="st4" d="M379.2,100.7h-14.9V34.4h14.9V100.7z"/>
		<path class="st4" d="M379.2,29.8h-14.9V19.5h14.9V29.8z"/>
	</g>
	<text transform="matrix(1 0 0 1 553 29.7769)" class="st4 st5 st6">TM</text>
</g>
</svg>
